<?xml version="1.0" encoding="UTF-8" standalone="no"?>
<svg
   xmlns:dc="http://purl.org/dc/elements/1.1/"
   xmlns:cc="http://creativecommons.org/ns#"
   xmlns:rdf="http://www.w3.org/1999/02/22-rdf-syntax-ns#"
   xmlns:svg="http://www.w3.org/2000/svg"
   xmlns="http://www.w3.org/2000/svg"
   xmlns:sodipodi="http://sodipodi.sourceforge.net/DTD/sodipodi-0.dtd"
   xmlns:inkscape="http://www.inkscape.org/namespaces/inkscape"
   width="500"
   height="500"
   viewBox="0 0 132.29166 132.29167"
   version="1.1"
   id="svg1412"
   sodipodi:docname="open-source.svg"
   inkscape:export-filename="C:\Users\Surface\Desktop\Github\Main-Website\new\assets\img\icon\open-source.png"
   inkscape:export-xdpi="96"
   inkscape:export-ydpi="96"
   inkscape:version="1.0 (4035a4fb49, 2020-05-01)">
  <defs
     id="defs1406" />
  <sodipodi:namedview
     id="base"
     pagecolor="#ffffff"
     bordercolor="#666666"
     borderopacity="1.0"
     inkscape:pageopacity="0.0"
     inkscape:pageshadow="2"
     inkscape:zoom="0.7"
     inkscape:cx="414.15911"
     inkscape:cy="364.32594"
     inkscape:document-units="px"
     inkscape:current-layer="layer1"
     inkscape:document-rotation="0"
     showgrid="false"
     units="px"
     inkscape:showpageshadow="false"
     inkscape:pagecheckerboard="true"
     inkscape:window-width="2256"
     inkscape:window-height="1410"
     inkscape:window-x="-11"
     inkscape:window-y="-11"
     inkscape:window-maximized="1" />
  <metadata
     id="metadata1409">
    <rdf:RDF>
      <cc:Work
         rdf:about="">
        <dc:format>image/svg+xml</dc:format>
        <dc:type
           rdf:resource="http://purl.org/dc/dcmitype/StillImage" />
        <dc:title />
      </cc:Work>
    </rdf:RDF>
  </metadata>
  <g
     inkscape:label="Layer 1"
     inkscape:groupmode="layer"
     id="layer1">
    <path
       id="path2064"
       style="fill:#1a1a1a;stroke:#1a1a1a;stroke-width:6.96279;stroke-linecap:round;stroke-linejoin:round"
       d="M 66.145832,20.293267 A 46.055939,46.055939 0 0 0 20.089893,66.349208 46.055939,46.055939 0 0 0 49.950695,109.46368 L 56.108876,86.095093 A 22.150714,22.150714 0 0 1 43.995204,66.349208 22.150714,22.150714 0 0 1 66.145832,44.198579 22.150714,22.150714 0 0 1 88.296461,66.349208 22.150714,22.150714 0 0 1 76.091637,86.141268 L 82.34097,109.46368 A 46.055939,46.055939 0 0 0 112.20177,66.349208 46.055939,46.055939 0 0 0 66.145832,20.293267 Z" />
  </g>
</svg>
