<?xml version="1.0" encoding="UTF-8" standalone="no"?>
<svg
   xmlns:dc="http://purl.org/dc/elements/1.1/"
   xmlns:cc="http://creativecommons.org/ns#"
   xmlns:rdf="http://www.w3.org/1999/02/22-rdf-syntax-ns#"
   xmlns:svg="http://www.w3.org/2000/svg"
   xmlns="http://www.w3.org/2000/svg"
   xmlns:xlink="http://www.w3.org/1999/xlink"
   xmlns:sodipodi="http://sodipodi.sourceforge.net/DTD/sodipodi-0.dtd"
   xmlns:inkscape="http://www.inkscape.org/namespaces/inkscape"
   width="500"
   height="500"
   viewBox="0 0 132.29167 132.29167"
   version="1.1"
   id="svg8"
   inkscape:export-filename="C:\Users\Jak\Desktop\gimpStuff\protos-apps-icon.png"
   inkscape:export-xdpi="96"
   inkscape:export-ydpi="96"
   inkscape:version="1.0 (4035a4fb49, 2020-05-01)"
   sodipodi:docname="protos-apps-icon.svg">
  <defs
     id="defs2">
    <linearGradient
       inkscape:collect="always"
       id="linearGradient1086">
      <stop
         style="stop-color:#68dcc8;stop-opacity:1"
         offset="0"
         id="stop1082" />
      <stop
         style="stop-color:#339989;stop-opacity:1"
         offset="1"
         id="stop1084" />
    </linearGradient>
    <linearGradient
       inkscape:collect="always"
       xlink:href="#linearGradient1086"
       id="linearGradient1088"
       x1="53.456341"
       y1="99.839302"
       x2="53.456341"
       y2="-0.21533576"
       gradientUnits="userSpaceOnUse"
       gradientTransform="matrix(1.3229166,0,0,1.3229167,0,-132.29168)" />
  </defs>
  <sodipodi:namedview
     id="base"
     pagecolor="#ffffff"
     bordercolor="#666666"
     borderopacity="1.0"
     inkscape:pageopacity="0.0"
     inkscape:pageshadow="2"
     inkscape:zoom="0.70741722"
     inkscape:cx="425.77916"
     inkscape:cy="324.55095"
     inkscape:document-units="px"
     inkscape:current-layer="layer1"
     inkscape:document-rotation="0"
     showgrid="false"
     inkscape:window-width="1920"
     inkscape:window-height="1017"
     inkscape:window-x="-8"
     inkscape:window-y="-8"
     inkscape:window-maximized="1"
     showguides="false"
     inkscape:pagecheckerboard="true"
     units="px" />
  <metadata
     id="metadata5">
    <rdf:RDF>
      <cc:Work
         rdf:about="">
        <dc:format>image/svg+xml</dc:format>
        <dc:type
           rdf:resource="http://purl.org/dc/dcmitype/StillImage" />
        <dc:title></dc:title>
      </cc:Work>
    </rdf:RDF>
  </metadata>
  <g
     inkscape:groupmode="layer"
     id="layer4"
     inkscape:label="Container"
     style="display:inline">
    <rect
       ry="10.098355"
       y="-132.29167"
       x="-5.5511151e-17"
       height="132.29167"
       width="132.29167"
       id="rect952"
       style="opacity:1;fill:url(#linearGradient1088);fill-opacity:1;stroke:none;stroke-width:1.12535;stroke-opacity:1"
       rx="0"
       transform="scale(1,-1)" />
  </g>
  <g
     inkscape:label="Pen"
     inkscape:groupmode="layer"
     id="layer1"
     style="display:inline">
    <path
       id="rect954"
       style="opacity:1;fill:#ffffff;fill-opacity:1;stroke:none;stroke-width:0.861021;stroke-miterlimit:4;stroke-dasharray:none;stroke-opacity:1"
       d="M 34.393233,93.235954 94.81192,32.817284 c 2.390859,-2.390841 4.197663,-0.348134 6.58853,2.042737 2.39085,2.390833 4.4335,4.197706 2.04272,6.588498 L 43.024483,101.86719 c -2.39086,2.39088 -11.274482,2.64324 -11.274482,2.64324 0,0 0.252375,-8.883626 2.643232,-11.274476 z"
       sodipodi:nodetypes="ssssscs" />
    <path
       sodipodi:nodetypes="cssscc"
       d="M 86.934349,36.54366 72.054374,51.423611 c -0.558152,0.558153 -1.456851,0.558153 -2.014969,0 -0.55817,-0.558154 -0.55817,-1.456824 -1.9e-5,-2.014968 L 84.919331,34.528675 c 0.483366,0.483322 1.389849,1.389805 2.015018,2.014985 z"
       style="opacity:1;fill:#ffffff;fill-opacity:1;stroke:none;stroke-width:0.615114;stroke-opacity:1"
       id="rect883-5" />
  </g>
  <g
     style="display:none"
     id="g1141"
     inkscape:groupmode="layer"
     inkscape:label="Colored Pen">
    <path
       sodipodi:nodetypes="ssssscs"
       d="M 35.67373,88.820372 90.250692,34.243577 c 2.159696,-2.159672 3.791806,-0.314474 5.951493,1.845225 2.159677,2.159663 4.004845,3.791829 1.845214,5.951457 L 43.470446,96.617053 c -2.159693,2.159695 -10.184381,2.387657 -10.184381,2.387657 0,0 0.227973,-8.024658 2.387665,-10.184338 z"
       style="opacity:1;fill:#7de2d1;fill-opacity:1;stroke:#339989;stroke-width:0.414018;stroke-miterlimit:4;stroke-dasharray:none;stroke-opacity:1"
       id="path1137" />
    <path
       id="path1139"
       style="opacity:1;fill:#7de2d1;fill-opacity:1;stroke:#339989;stroke-width:0.414018;stroke-opacity:1"
       d="M 83.134787,37.60965 69.693515,51.05086 c -0.504185,0.504187 -1.315991,0.504187 -1.820145,0 -0.504203,-0.504187 -0.504203,-1.315963 -1.7e-5,-1.82014 L 81.314595,35.789493 c 0.43663,0.43659 1.255468,1.255426 1.820192,1.820157 z"
       sodipodi:nodetypes="cssscc" />
  </g>
</svg>
