<?xml version="1.0" encoding="UTF-8" standalone="no"?>
<svg
   xmlns:dc="http://purl.org/dc/elements/1.1/"
   xmlns:cc="http://creativecommons.org/ns#"
   xmlns:rdf="http://www.w3.org/1999/02/22-rdf-syntax-ns#"
   xmlns:svg="http://www.w3.org/2000/svg"
   xmlns="http://www.w3.org/2000/svg"
   xmlns:sodipodi="http://sodipodi.sourceforge.net/DTD/sodipodi-0.dtd"
   xmlns:inkscape="http://www.inkscape.org/namespaces/inkscape"
   sodipodi:docname="icon.svg"
   inkscape:version="1.0 (4035a4fb49, 2020-05-01)"
   inkscape:export-ydpi="96"
   inkscape:export-xdpi="96"
   inkscape:export-filename="C:\Users\Jak\Desktop\github\Main-Website\assets\img\pen-icon.png"
   id="svg8"
   version="1.1"
   viewBox="0 0 132.29167 132.29167"
   height="500"
   width="500">
  <defs
     id="defs2" />
  <sodipodi:namedview
     units="px"
     inkscape:pagecheckerboard="true"
     showguides="false"
     inkscape:window-maximized="1"
     inkscape:window-y="-8"
     inkscape:window-x="-8"
     inkscape:window-height="1017"
     inkscape:window-width="1920"
     showgrid="false"
     inkscape:document-rotation="0"
     inkscape:current-layer="layer1"
     inkscape:document-units="px"
     inkscape:cy="281.93119"
     inkscape:cx="259.92071"
     inkscape:zoom="1.0325792"
     inkscape:pageshadow="2"
     inkscape:pageopacity="0.0"
     borderopacity="1.0"
     bordercolor="#666666"
     pagecolor="#ffffff"
     id="base" />
  <metadata
     id="metadata5">
    <rdf:RDF>
      <cc:Work
         rdf:about="">
        <dc:format>image/svg+xml</dc:format>
        <dc:type
           rdf:resource="http://purl.org/dc/dcmitype/StillImage" />
        <dc:title />
      </cc:Work>
    </rdf:RDF>
  </metadata>
  <g
     style="display:inline"
     inkscape:label="Container"
     id="layer4"
     inkscape:groupmode="layer">
    <rect
       transform="scale(1,-1)"
       rx="0"
       style="opacity:1;fill:#339989;fill-opacity:1;stroke:none;stroke-width:1.12535;stroke-opacity:1"
       id="rect952"
       width="132.29167"
       height="132.29167"
       x="-5.5511151e-17"
       y="-132.29167"
       ry="10.583334" />
  </g>
  <g
     inkscape:label="Pen"
     inkscape:groupmode="layer"
     id="g1141"
     style="display:inline">
    <path
       id="path1137"
       style="opacity:1;fill:#7de2d1;fill-opacity:1;stroke:none;stroke-width:0.458334;stroke-miterlimit:4;stroke-dasharray:none;stroke-opacity:1"
       d="m 34.393233,93.235954 60.41869,-60.418669 c 2.390863,-2.390842 4.19767,-0.348136 6.588517,2.042736 2.39084,2.390833 4.43351,4.197706 2.04272,6.588498 L 43.024483,101.86719 c -2.39086,2.39086 -11.274482,2.64323 -11.274482,2.64323 0,0 0.252374,-8.883615 2.643232,-11.274466 z"
       sodipodi:nodetypes="ssssscs" />
    <path
       sodipodi:nodetypes="cssscc"
       d="M 86.934357,36.54366 72.054378,51.423611 c -0.558152,0.558155 -1.456851,0.558155 -2.014968,0 -0.558171,-0.558154 -0.558171,-1.456822 -1.8e-5,-2.014967 L 84.919337,34.528675 c 0.483365,0.483322 1.389849,1.389806 2.01502,2.014985 z"
       style="opacity:1;fill:#7de2d1;fill-opacity:1;stroke:none;stroke-width:0.458334;stroke-opacity:1"
       id="path1139" />
  </g>
  <g
     style="display:none"
     id="layer1"
     inkscape:groupmode="layer"
     inkscape:label="Bigger Pen">
    <path
       sodipodi:nodetypes="ssssscs"
       d="M 4.8058909,111.79264 114.65806,1.9405158 c 4.34701,-4.3469854 7.63212,-0.6329744 11.9791,3.7140655 4.34699,4.3469687 8.06093,7.6321927 3.71404,11.9790867 L 20.499073,127.4858 C 16.152055,131.83281 0,132.29167 0,132.29167 c 0,0 0.45887273,-16.15203 4.8058909,-20.49903 z"
       style="display:inline;opacity:1;fill:#7de2d1;fill-opacity:1;stroke:none;stroke-width:0.833337;stroke-miterlimit:4;stroke-dasharray:none;stroke-opacity:1"
       id="path1137-2" />
    <path
       id="path1139-0"
       style="display:inline;opacity:1;fill:#7de2d1;fill-opacity:1;stroke:none;stroke-width:0.833337;stroke-opacity:1"
       d="M 100.3352,8.7157431 73.280692,35.7702 c -1.014819,1.014827 -2.648819,1.014827 -3.663582,0 -1.014855,-1.014826 -1.014855,-2.648767 -1.9e-5,-3.663577 L 96.671528,5.052134 c 0.878855,0.8787673 2.527,2.52692 3.663672,3.6636091 z"
       sodipodi:nodetypes="cssscc" />
  </g>
</svg>
