<?xml version="1.0" encoding="UTF-8" standalone="no"?>
<svg
   xmlns:dc="http://purl.org/dc/elements/1.1/"
   xmlns:cc="http://creativecommons.org/ns#"
   xmlns:rdf="http://www.w3.org/1999/02/22-rdf-syntax-ns#"
   xmlns:svg="http://www.w3.org/2000/svg"
   xmlns="http://www.w3.org/2000/svg"
   xmlns:sodipodi="http://sodipodi.sourceforge.net/DTD/sodipodi-0.dtd"
   xmlns:inkscape="http://www.inkscape.org/namespaces/inkscape"
   width="500"
   height="500"
   viewBox="0 0 132.29167 132.29167"
   version="1.1"
   id="svg8"
   inkscape:export-filename="C:\Users\Jak\Desktop\github\Main-Website\assets\img\icon.png"
   inkscape:export-xdpi="96"
   inkscape:export-ydpi="96"
   inkscape:version="1.0 (4035a4fb49, 2020-05-01)"
   sodipodi:docname="icon.svg">
  <defs
     id="defs2" />
  <sodipodi:namedview
     id="base"
     pagecolor="#ffffff"
     bordercolor="#666666"
     borderopacity="1.0"
     inkscape:pageopacity="0.0"
     inkscape:pageshadow="2"
     inkscape:zoom="0.73770022"
     inkscape:cx="109.97282"
     inkscape:cy="324.79341"
     inkscape:document-units="px"
     inkscape:current-layer="layer2"
     inkscape:document-rotation="0"
     showgrid="false"
     inkscape:window-width="1920"
     inkscape:window-height="1017"
     inkscape:window-x="-8"
     inkscape:window-y="-8"
     inkscape:window-maximized="1"
     showguides="false"
     inkscape:pagecheckerboard="true"
     units="px" />
  <metadata
     id="metadata5">
    <rdf:RDF>
      <cc:Work
         rdf:about="">
        <dc:format>image/svg+xml</dc:format>
        <dc:type
           rdf:resource="http://purl.org/dc/dcmitype/StillImage" />
        <dc:title />
      </cc:Work>
    </rdf:RDF>
  </metadata>
  <g
     inkscape:groupmode="layer"
     id="layer4"
     inkscape:label="Container"
     style="display:inline">
    <rect
       y="-132.29167"
       x="-5.5511151e-17"
       height="132.29167"
       width="132.29167"
       id="rect952"
       style="opacity:1;fill:#339989;fill-opacity:1;stroke:none;stroke-width:1.12535;stroke-opacity:1"
       rx="0"
       transform="scale(1,-1)" />
  </g>
  <g
     inkscape:label="Pen"
     id="layer2"
     inkscape:groupmode="layer">
    <rect
       style="display:inline;fill:#7de2d1;fill-opacity:1;stroke:none;stroke-width:5.31338;stroke-linecap:round"
       id="rect34"
       width="27.550213"
       height="3.0611351"
       x="11.718694"
       y="80.236511"
       rx="1.5305675"
       ry="1.5305675"
       transform="matrix(0.70711466,-0.7070989,0.70711466,0.7070989,0,0)" />
    <path
       sodipodi:nodetypes="cssssccc"
       id="rect81"
       style="display:inline;fill:#7de2d1;fill-opacity:1;stroke:none;stroke-width:21.8642;stroke-linecap:round"
       d="M 32.420736,90.128922 95.193359,27.357694 c 1.19917,-1.199147 3.12997,-1.199147 4.32915,0 l 5.411431,5.411313 c 1.19919,1.199145 1.19919,3.129902 0,4.329048 L 42.161315,99.869283 c -6.504336,6.504187 -15.693156,5.952437 -15.693156,5.952437 0,0 -0.517147,-9.223217 5.952577,-15.692798 z" />
  </g>
  <g
     inkscape:label="Bigger Pen"
     inkscape:groupmode="layer"
     id="layer1"
     style="display:none">
    <path
       id="path1137-2"
       style="display:inline;opacity:1;fill:#7de2d1;fill-opacity:1;stroke:none;stroke-width:0.833337;stroke-miterlimit:4;stroke-dasharray:none;stroke-opacity:1"
       d="M 4.8058909,111.79264 114.65806,1.9405158 c 4.34701,-4.3469854 7.63212,-0.6329744 11.9791,3.7140655 4.34699,4.3469687 8.06093,7.6321927 3.71404,11.9790867 L 20.499073,127.4858 C 16.152055,131.83281 0,132.29167 0,132.29167 c 0,0 0.45887273,-16.15203 4.8058909,-20.49903 z"
       sodipodi:nodetypes="ssssscs" />
    <path
       sodipodi:nodetypes="cssscc"
       d="M 100.3352,8.7157431 73.280692,35.7702 c -1.014819,1.014827 -2.648819,1.014827 -3.663582,0 -1.014855,-1.014826 -1.014855,-2.648767 -1.9e-5,-3.663577 L 96.671528,5.052134 c 0.878855,0.8787673 2.527,2.52692 3.663672,3.6636091 z"
       style="display:inline;opacity:1;fill:#7de2d1;fill-opacity:1;stroke:none;stroke-width:0.833337;stroke-opacity:1"
       id="path1139-0" />
  </g>
</svg>
